<svg width="191" height="29" viewBox="0 0 191 29" fill="none" xmlns="http://www.w3.org/2000/svg">
<g clip-path="url(#clip0_3731_21089)">
<circle cx="14.0938" cy="14" r="13.125" fill="#FC3F1D"/>
<path d="M15.9435 21.8882H18.6856V6.13818H14.6971C10.686 6.13818 8.57841 8.20041 8.57841 11.2371C8.57841 13.6619 9.73417 15.0896 11.7964 16.5626L8.21582 21.8882H11.1845L15.173 15.9281L13.7906 14.999C12.1137 13.8659 11.2978 12.9821 11.2978 11.0785C11.2978 9.40149 12.4763 8.2684 14.7198 8.2684H15.9435V21.8882Z" fill="white"/>
</g>
<rect x="28.9688" y="0.875" width="26.25" height="26.25" rx="9.84375" fill="#1E1E1E"/>
<path fill-rule="evenodd" clip-rule="evenodd" d="M42.586 4.09058L42.586 13.0545L49.8751 7.95064L50.4397 8.757L43.0755 13.9135L51.2268 17.7146L50.8108 18.6067L42.586 14.7714V23.8437H41.6016V19.6258L40.8692 23.7796L39.8998 23.6087L40.9414 17.7012L38.4264 23.0947L37.5342 22.6787L40.7595 15.7621L34.8695 20.7044L34.2367 19.9503L40.5816 14.6263L32.3304 15.3482L32.2446 14.3676L40.8672 13.6132L34.2367 8.04957L34.8695 7.2955L41.6016 12.9445L41.6016 4.09058L42.586 4.09058Z" fill="white"/>
<path d="M75.3525 4.23594V24H71.9116V6.90906H65.7691V24H62.3281V4.23594H75.3525ZM81.4841 11.5444C81.9202 10.8429 82.4605 10.3121 83.1051 9.95187C83.7686 9.59167 84.4985 9.41156 85.2947 9.41156C86.091 9.41156 86.8209 9.57271 87.4844 9.895C88.148 10.2173 88.7167 10.7007 89.1907 11.3453C89.6646 11.9709 90.0343 12.7482 90.2997 13.6772C90.5652 14.5872 90.6979 15.6394 90.6979 16.8337C90.6979 18.0281 90.5557 19.0898 90.2713 20.0187C90.0059 20.9477 89.6267 21.7345 89.1338 22.3791C88.6598 23.0047 88.0721 23.4786 87.3707 23.8009C86.6882 24.1232 85.9393 24.2844 85.1241 24.2844C83.6264 24.2844 82.4415 23.6303 81.5694 22.3222V28.1234H78.1854V9.69594H81.3135L81.4841 11.5444ZM84.271 21.6112C85.2568 21.6112 85.9867 21.2321 86.4607 20.4737C86.9536 19.7154 87.2001 18.5021 87.2001 16.8337C87.2001 15.1654 86.9726 13.9616 86.5176 13.2222C86.0626 12.4639 85.3706 12.0847 84.4416 12.0847C83.4937 12.0847 82.7828 12.4449 82.3088 13.1653C81.8348 13.8857 81.5884 15.0422 81.5694 16.6347V16.8622C81.5694 18.5305 81.7874 19.7439 82.2235 20.5022C82.6785 21.2416 83.361 21.6112 84.271 21.6112ZM100.268 17.4878H99.7845C98.3247 17.4878 97.282 17.6584 96.6564 17.9997C96.0308 18.322 95.718 18.8907 95.718 19.7059C95.718 20.3126 95.8886 20.8055 96.2298 21.1847C96.5901 21.5449 97.1304 21.725 97.8508 21.725C98.4575 21.725 98.9598 21.6207 99.358 21.4122C99.7561 21.1847 100.059 20.9098 100.268 20.5875V17.4878ZM103.652 20.5022C103.652 21.6776 103.709 22.8435 103.823 24H100.524C100.467 23.8483 100.41 23.6682 100.353 23.4597C100.315 23.2511 100.287 23.0521 100.268 22.8625H100.126C99.8035 23.2037 99.3864 23.5166 98.8745 23.8009C98.3627 24.0664 97.6138 24.1991 96.628 24.1991C95.3198 24.1991 94.2582 23.8104 93.443 23.0331C92.6467 22.2558 92.2486 21.1373 92.2486 19.6775C92.2486 18.2177 92.8458 17.0897 94.0402 16.2934C95.2345 15.4782 97.1304 15.0706 99.7277 15.0706H100.268V14.2744C100.268 13.4971 100.078 12.9568 99.6992 12.6534C99.3201 12.3311 98.7229 12.17 97.9077 12.17C97.4716 12.17 97.0261 12.2174 96.5711 12.3122C96.1161 12.388 95.6801 12.4923 95.263 12.625C94.8648 12.7577 94.4857 12.9094 94.1255 13.08C93.7842 13.2506 93.4998 13.4212 93.2723 13.5919V10.7766C93.7842 10.4732 94.4667 10.1794 95.3198 9.895C96.173 9.61062 97.1683 9.46844 98.3058 9.46844C100.107 9.46844 101.443 9.82864 102.315 10.5491C103.207 11.2695 103.652 12.5018 103.652 14.2459V20.5022ZM109.757 17.0897V24H106.373V9.69594H109.757V16.4072L114.534 9.69594H117.947L113.169 16.4072L118.601 24H114.762L109.757 17.0897ZM126.687 12.3691V24H123.303V12.3691H119.322V9.69594H130.669V12.3691H126.687ZM135.942 9.69594V18.5684L141.118 9.69594H144.132V24H140.862V15.1559L135.686 24H132.672V9.69594H135.942ZM150.358 17.0897V24H146.974V9.69594H150.358V16.4072L155.136 9.69594H158.548L153.771 16.4072L159.202 24H155.363L150.358 17.0897ZM162.596 28.4078C162.255 28.4078 161.971 28.3794 161.743 28.3225C161.516 28.2846 161.326 28.2372 161.174 28.1803C161.004 28.1045 160.862 28.0192 160.748 27.9244V25.1659C161.127 25.5451 161.639 25.7347 162.283 25.7347C162.757 25.7347 163.137 25.6304 163.421 25.4219C163.705 25.2323 163.942 24.9669 164.132 24.6256L159.212 9.69594H162.767L165.923 20.4737L169.08 9.69594H172.35L167.886 23.2322C167.639 23.9716 167.374 24.6541 167.089 25.2797C166.805 25.9053 166.464 26.4456 166.066 26.9006C165.668 27.3746 165.184 27.7443 164.615 28.0097C164.066 28.2751 163.393 28.4078 162.596 28.4078ZM189.133 24H185.834V13.3075L182.365 24H179.606L176.506 13.3359V24H173.634V9.69594H178.554L181.341 19.2225L184.441 9.69594H189.076L189.133 24Z" fill="#1E1E1E"/>
<defs>
<clipPath id="clip0_3731_21089">
<rect width="26.25" height="26.25" fill="white" transform="translate(0.96875 0.875)"/>
</clipPath>
</defs>
</svg>
